<?xml version="1.0" encoding="UTF-8"?>
<!DOCTYPE svg PUBLIC "-//W3C//DTD SVG 1.1//EN" "http://www.w3.org/Graphics/SVG/1.1/DTD/svg11.dtd">
<svg xmlns="http://www.w3.org/2000/svg" version="1.1" width="512px" height="512px" style="shape-rendering:geometricPrecision; text-rendering:geometricPrecision; image-rendering:optimizeQuality; fill-rule:evenodd; clip-rule:evenodd" xmlns:xlink="http://www.w3.org/1999/xlink">
<g><path style="opacity:1" fill="#141414" d="M -0.5,-0.5 C 170.167,-0.5 340.833,-0.5 511.5,-0.5C 511.5,170.167 511.5,340.833 511.5,511.5C 340.833,511.5 170.167,511.5 -0.5,511.5C -0.5,340.833 -0.5,170.167 -0.5,-0.5 Z"/></g>
<g><path style="opacity:1" fill="#7d7d7d" d="M 263.5,25.5 C 337.665,24.5008 411.998,24.1674 486.5,24.5C 486.5,40.1667 486.5,55.8333 486.5,71.5C 486.167,71.5 485.833,71.5 485.5,71.5C 485.5,56.1667 485.5,40.8333 485.5,25.5C 411.5,25.5 337.5,25.5 263.5,25.5 Z"/></g>
<g><path style="opacity:1" fill="#fdfdfd" d="M 243.5,25.5 C 243.667,99.5008 243.5,173.501 243,247.5C 238.54,307.288 206.707,341.122 147.5,349C 117.81,352.409 90.4766,346.076 65.5,330C 39.1414,307.774 25.808,279.274 25.5,244.5C 25.5,241.833 25.5,239.167 25.5,236.5C 43.8333,236.5 62.1667,236.5 80.5,236.5C 80.2963,253.687 84.463,269.687 93,284.5C 107.532,301.219 125.698,307.053 147.5,302C 165.791,297.71 177.625,286.543 183,268.5C 185.561,259.679 187.061,250.679 187.5,241.5C 188.499,169.669 188.833,97.6686 188.5,25.5C 206.833,25.5 225.167,25.5 243.5,25.5 Z"/></g>
<g><path style="opacity:1" fill="#fdfdfd" d="M 263.5,25.5 C 337.5,25.5 411.5,25.5 485.5,25.5C 485.5,40.8333 485.5,56.1667 485.5,71.5C 430.167,71.5 374.833,71.5 319.5,71.5C 319.5,99.5 319.5,127.5 319.5,155.5C 371.664,156.499 423.997,156.832 476.5,156.5C 476.5,172.167 476.5,187.833 476.5,203.5C 424.167,203.5 371.833,203.5 319.5,203.5C 319.5,250.167 319.5,296.833 319.5,343.5C 300.833,343.5 282.167,343.5 263.5,343.5C 263.5,237.5 263.5,131.5 263.5,25.5 Z"/></g>
<g><path style="opacity:1" fill="#cdcdcd" d="M 243.5,25.5 C 225.167,25.5 206.833,25.5 188.5,25.5C 188.833,97.6686 188.499,169.669 187.5,241.5C 187.5,169.167 187.5,96.8333 187.5,24.5C 206.341,24.1698 225.007,24.5031 243.5,25.5 Z"/></g>
<g><path style="opacity:1" fill="#353535" d="M 485.5,71.5 C 485.833,71.5 486.167,71.5 486.5,71.5C 431.336,72.499 376.003,72.8323 320.5,72.5C 320.831,100.338 320.498,128.005 319.5,155.5C 319.5,127.5 319.5,99.5 319.5,71.5C 374.833,71.5 430.167,71.5 485.5,71.5 Z"/></g>
<g><path style="opacity:1" fill="#8e8e8e" d="M 80.5,236.5 C 62.1667,236.5 43.8333,236.5 25.5,236.5C 25.5,239.167 25.5,241.833 25.5,244.5C 24.5233,241.713 24.19,238.713 24.5,235.5C 43.3408,235.17 62.0075,235.503 80.5,236.5 Z"/></g>
</svg>
