<?xml version="1.0" encoding="UTF-8"?>
<!DOCTYPE svg PUBLIC "-//W3C//DTD SVG 1.1//EN" "http://www.w3.org/Graphics/SVG/1.1/DTD/svg11.dtd">
<svg xmlns="http://www.w3.org/2000/svg" version="1.1" width="512px" height="512px" style="shape-rendering:geometricPrecision; text-rendering:geometricPrecision; image-rendering:optimizeQuality; fill-rule:evenodd; clip-rule:evenodd" xmlns:xlink="http://www.w3.org/1999/xlink">
<g><path style="opacity:1" fill="#fefefe" d="M -0.5,-0.5 C 170.167,-0.5 340.833,-0.5 511.5,-0.5C 511.5,170.167 511.5,340.833 511.5,511.5C 340.833,511.5 170.167,511.5 -0.5,511.5C -0.5,340.833 -0.5,170.167 -0.5,-0.5 Z"/></g>
<g><path style="opacity:1" fill="#141414" d="M 237.5,10.5 C 324.553,7.45673 395.386,39.4567 450,106.5C 505.003,183.205 515.003,265.539 480,353.5C 437.444,442.229 366.944,491.063 268.5,500C 181.312,502.085 111.145,468.918 58,400.5C 8.61944,328.94 -2.04723,251.94 26,169.5C 61.2337,84.9444 123.734,33.1111 213.5,14C 221.727,13.4205 229.727,12.2538 237.5,10.5 Z"/></g>
</svg>
